# xmcd
#
# Track frame offsets:
#	150
#	13701
#	21075
#	30825
#	39555
#	48779
#	61315
#	71548
#	83599
#	97456
#	108600
#	116420
#	138111
#	149560
#	159423
#	168961
#	179997
#	189542
#	202345
#	217719
#	226408
#	243942
#	255904
#	272466
#	284826
#	298401
#	310741
#	336352
#	346934
#
# Disc length: 4739 seconds
#
# Revision: 1
# Processed by: cddbd v1.5.2PL0 Copyright (c) Steve Scherf et al.
# Submitted via: audiograbber 1.83.01
#
DISCID=af12811d
DTITLE=Юрий Визбор - Том 1
DYEAR=2010
DGENRE=
TTITLE0=Наполним музыкой сердца
TTITLE1=Охотный ряд
TTITLE2=Домбайский вальс
TTITLE3=Турбины "Ту"
TTITLE4=Ты у меня одна
TTITLE5=Католическая церковь
TTITLE6=Вставай, граф
TTITLE7=Телефон
TTITLE8=Сретенский двор
TTITLE9=Серега Санин
TTITLE10=Спокойно, товарищ, спокойно
TTITLE11=Ходики
TTITLE12=Не жалейте меня
TTITLE13=Флот не опозорим
TTITLE14=Милая моя
TTITLE15=Обучаю играть на гитаре
TTITLE16=Апрельская прогулка
TTITLE17=Я в догу перед вами
TTITLE18=Леди (Нине Тихоновой-Визбор)
TTITLE19=Я вернулся
TTITLE20=Сорокалетье
TTITLE21=Одинокий гитарист
TTITLE22=Рассказ женщины
TTITLE23=Укушенный
TTITLE24=Деньги
TTITLE25=Воспоминание о пехоте
TTITLE26=Волейбол на Сретенке
TTITLE27=Улетаем
TTITLE28=Давай прощаться, друзья
EXTD=
EXTT0=
EXTT1=
EXTT2=
EXTT3=
EXTT4=
EXTT5=
EXTT6=
EXTT7=
EXTT8=
EXTT9=
EXTT10=
EXTT11=
EXTT12=
EXTT13=
EXTT14=
EXTT15=
EXTT16=
EXTT17=
EXTT18=
EXTT19=
EXTT20=
EXTT21=
EXTT22=
EXTT23=
EXTT24=
EXTT25=
EXTT26=
EXTT27=
EXTT28=
PLAYORDER=
